<svg xmlns="http://www.w3.org/2000/svg" viewBox="0 0 256 257" aria-hidden="true">
  <path fill="#2563eb" d="M255.2 37.9 134.9 252.6c-2.5 4.4-8.8 4.4-11.3 0L.8 37.9c-2.8-4.9 1.4-10.8 6.9-9.8l121.1 21.7c.8.1 1.6.1 2.4 0l117-21.6c5.5-1 9.8 4.8 7 9.7Z"/>
  <path fill="#fbbf24" d="M185.4.1 96.4 17.6a3.2 3.2 0 0 0-2.6 3L88.3 114a3.2 3.2 0 0 0 3.9 3.3l24.8-5.7a3.2 3.2 0 0 1 3.8 3.8l-7.4 36.3a3.2 3.2 0 0 0 4.1 3.7l15.3-4.6a3.2 3.2 0 0 1 4 3.7l-11.7 56.6c-.8 4 4.6 6.1 6.8 2.7l1.5-2.3 72.6-145a3.2 3.2 0 0 0-3.6-4.5l-25.5 4.9a3.2 3.2 0 0 1-3.7-4l16.6-58.8a3.2 3.2 0 0 0-3.7-4Z"/>
</svg>
